<svg width="40" height="40" viewBox="0 0 40 40" fill="none" xmlns="http://www.w3.org/2000/svg">
  <!-- Background Circle with Gradient -->
  <defs>
    <linearGradient id="backgroundGrad" x1="0%" y1="0%" x2="100%" y2="100%">
      <stop offset="0%" style="stop-color:#0ea5e9;stop-opacity:1" />
      <stop offset="100%" style="stop-color:#0284c7;stop-opacity:1" />
    </linearGradient>
    <linearGradient id="documentGrad" x1="0%" y1="0%" x2="100%" y2="100%">
      <stop offset="0%" style="stop-color:#ffffff;stop-opacity:1" />
      <stop offset="100%" style="stop-color:#f8fafc;stop-opacity:1" />
    </linearGradient>
    <linearGradient id="aiGrad" x1="0%" y1="0%" x2="100%" y2="100%">
      <stop offset="0%" style="stop-color:#dc51ff;stop-opacity:1" />
      <stop offset="100%" style="stop-color:#a21bb8;stop-opacity:1" />
    </linearGradient>
  </defs>
  
  <!-- Main Background Circle -->
  <circle cx="20" cy="20" r="18" fill="url(#backgroundGrad)" />
  
  <!-- Document/Resume Icon -->
  <rect x="10" y="8" width="14" height="18" rx="2" fill="url(#documentGrad)" stroke="#e2e8f0" stroke-width="0.5"/>
  
  <!-- Document Lines (representing text) -->
  <rect x="12" y="11" width="8" height="1" rx="0.5" fill="#64748b" opacity="0.7"/>
  <rect x="12" y="13" width="10" height="1" rx="0.5" fill="#64748b" opacity="0.7"/>
  <rect x="12" y="15" width="6" height="1" rx="0.5" fill="#64748b" opacity="0.7"/>
  <rect x="12" y="17" width="9" height="1" rx="0.5" fill="#64748b" opacity="0.7"/>
  <rect x="12" y="19" width="7" height="1" rx="0.5" fill="#64748b" opacity="0.7"/>
  <rect x="12" y="21" width="8" height="1" rx="0.5" fill="#64748b" opacity="0.7"/>
  
  <!-- AI Brain/Neural Network Icon -->
  <g transform="translate(26, 6)">
    <!-- Central AI Node -->
    <circle cx="4" cy="4" r="2.5" fill="url(#aiGrad)" opacity="0.9"/>
    
    <!-- Neural Network Connections -->
    <line x1="1" y1="1" x2="4" y2="4" stroke="url(#aiGrad)" stroke-width="1" opacity="0.6"/>
    <line x1="7" y1="1" x2="4" y2="4" stroke="url(#aiGrad)" stroke-width="1" opacity="0.6"/>
    <line x1="1" y1="7" x2="4" y2="4" stroke="url(#aiGrad)" stroke-width="1" opacity="0.6"/>
    <line x1="7" y1="7" x2="4" y2="4" stroke="url(#aiGrad)" stroke-width="1" opacity="0.6"/>
    
    <!-- Corner Nodes -->
    <circle cx="1" cy="1" r="1" fill="url(#aiGrad)" opacity="0.7"/>
    <circle cx="7" cy="1" r="1" fill="url(#aiGrad)" opacity="0.7"/>
    <circle cx="1" cy="7" r="1" fill="url(#aiGrad)" opacity="0.7"/>
    <circle cx="7" cy="7" r="1" fill="url(#aiGrad)" opacity="0.7"/>
  </g>
  
  <!-- Analysis/Chart Icon -->
  <g transform="translate(8, 28)">
    <!-- Chart Bars -->
    <rect x="0" y="3" width="2" height="3" rx="1" fill="#10b981" opacity="0.8"/>
    <rect x="3" y="1" width="2" height="5" rx="1" fill="#10b981" opacity="0.8"/>
    <rect x="6" y="2" width="2" height="4" rx="1" fill="#10b981" opacity="0.8"/>
    <rect x="9" y="0" width="2" height="6" rx="1" fill="#10b981" opacity="0.8"/>
    
    <!-- Trend Line -->
    <polyline points="1,4 4,2 7,3 10,1" fill="none" stroke="#059669" stroke-width="1.5" opacity="0.6"/>
  </g>
  
  <!-- Subtle Glow Effect -->
  <circle cx="20" cy="20" r="18" fill="none" stroke="url(#backgroundGrad)" stroke-width="0.5" opacity="0.3"/>
</svg>
